<svg width="796" height="334" viewBox="0 0 796 334" fill="none" xmlns="http://www.w3.org/2000/svg">
<path fill-rule="evenodd" clip-rule="evenodd" d="M450.233 49.7563L743.719 1.21868C757.059 -1.20823 761.91 2.4321 764.335 13.3531L775.25 67.958C775.17 70.9716 774.49 71.8427 772.825 72.8118C741.293 91.0134 747.357 123.776 786.165 135.911L794.654 191.729C797.08 203.863 786.165 215.998 780.101 218.425L731.591 228.132C720.676 219.638 718.251 209.931 721.889 203.863C721.889 203.863 748.57 199.01 763.123 195.369C767.523 193.959 768.121 191.377 766.761 184.448C764.801 172.592 761.91 155.37 760.697 154.112C755.05 148.257 752.208 145.618 744.931 144.405L743.719 168.674C742.855 173.626 739.023 176.613 735.229 178.381C720.801 182.336 710.154 192.585 708.549 199.01C704.715 214.355 715.825 230.559 731.591 237.84L723.102 299.725C721.907 309.071 709.762 315.5 700.06 315.5L522.998 290.018C516.072 283.437 515.197 275.703 515.722 262.109L700.06 287.591L703.698 251.188C669.741 228.132 672.167 175.954 717.038 156.539C721.523 139.757 723.788 130.726 723.102 115.282L456.297 75.2386C453.872 80.0924 451.136 98.058 452.659 116.496C479.339 135.911 482.978 192.942 436.893 209.931L434.468 219.638C433.412 218.753 432.662 217.956 431.957 217.207C430.351 215.502 428.978 214.044 424.766 212.358C417.886 210.063 415.442 210.36 409.976 211.026C409.661 211.064 409.336 211.104 409 211.144L416.276 190.516C453.872 180.808 456.297 145.618 424.766 127.417L429.617 67.958C430.829 57.037 439.319 52.1832 450.233 49.7563ZM549.679 61.8908L727.953 88.5865L735.229 72.8118L746.144 60.6774L742.506 31.5548L737.655 29.1279L549.679 61.8908Z" fill="#AB6EE7"/>
<path fill-rule="evenodd" clip-rule="evenodd" d="M450.233 49.7563L743.719 1.21868C757.059 -1.20823 761.91 2.4321 764.335 13.3531L775.25 67.958C775.17 70.9716 774.49 71.8427 772.825 72.8118C741.293 91.0134 747.357 123.776 786.165 135.911L794.654 191.729C797.08 203.863 786.165 215.998 780.101 218.425L731.591 228.132C720.676 219.638 718.251 209.931 721.889 203.863C721.889 203.863 748.57 199.01 763.123 195.369C767.523 193.959 768.121 191.377 766.761 184.448C764.801 172.592 761.91 155.37 760.697 154.112C755.05 148.257 752.208 145.618 744.931 144.405L743.719 168.674C742.855 173.626 739.023 176.613 735.229 178.381C720.801 182.336 710.154 192.585 708.549 199.01C704.715 214.355 715.825 230.559 731.591 237.84L723.102 299.725C721.907 309.071 709.762 315.5 700.06 315.5L522.998 290.018C516.072 283.437 515.197 275.703 515.722 262.109L700.06 287.591L703.698 251.188C669.741 228.132 672.167 175.954 717.038 156.539C721.523 139.757 723.788 130.726 723.102 115.282L456.297 75.2386C453.872 80.0924 451.136 98.058 452.659 116.496C479.339 135.911 482.978 192.942 436.893 209.931L434.468 219.638C433.412 218.753 432.662 217.956 431.957 217.207C430.351 215.502 428.978 214.044 424.766 212.358C417.886 210.063 415.442 210.36 409.976 211.026C409.661 211.064 409.336 211.104 409 211.144L416.276 190.516C453.872 180.808 456.297 145.618 424.766 127.417L429.617 67.958C430.829 57.037 439.319 52.1832 450.233 49.7563ZM549.679 61.8908L727.953 88.5865L735.229 72.8118L746.144 60.6774L742.506 31.5548L737.655 29.1279L549.679 61.8908Z" stroke="#AB6EE7"/>
<path fill-rule="evenodd" clip-rule="evenodd" d="M727.953 88.5865L549.679 61.8908L737.655 29.1279L742.506 31.5548L746.144 60.6774L735.229 72.8118L727.953 88.5865Z" stroke="#AB6EE7"/>
<path d="M581.7 248.704C576.473 248.704 572.74 247.677 570.5 245.624C568.26 243.571 567.14 240.631 567.14 236.804C567.14 234.937 567.28 231.764 567.56 227.284C567.84 222.711 568.213 217.531 568.68 211.744C569.147 205.957 569.613 199.844 570.08 193.404C570.547 186.964 571.013 180.897 571.48 175.204C571.947 169.511 572.32 164.517 572.6 160.224C572.88 155.931 573.02 152.991 573.02 151.404C573.02 150.004 573.767 149.304 575.26 149.304H582.96C588.187 149.304 591.78 150.331 593.74 152.384C595.793 154.344 596.82 157.284 596.82 161.204C596.82 161.671 596.773 162.091 596.68 162.464C596.68 162.837 596.68 163.257 596.68 163.724L592.06 229.104H617.26C617.82 229.104 618.333 229.291 618.8 229.664C619.267 229.944 619.5 230.411 619.5 231.064L618.94 239.324C618.753 242.124 617.96 244.411 616.56 246.184C615.253 247.864 612.5 248.704 608.3 248.704H581.7Z" fill="#AB6EE7"/>
<path d="M597.5 155.904L592.18 233.604C592.087 235.004 591.573 235.704 590.64 235.704H582.94C577.713 235.704 573.98 234.677 571.74 232.624C569.5 230.571 568.38 227.631 568.38 223.804C568.38 222.404 568.427 220.304 568.52 217.504C568.707 214.704 568.94 211.437 569.22 207.704C569.5 203.877 569.78 199.771 570.06 195.384C570.433 190.904 570.807 186.424 571.18 181.944C571.553 177.371 571.88 172.844 572.16 168.364C572.533 163.884 572.86 159.731 573.14 155.904H550.74C549.713 155.904 549.2 155.251 549.2 153.944L549.62 146.104C549.713 144.891 549.9 143.724 550.18 142.604C550.553 141.391 551.113 140.317 551.86 139.384C552.607 138.451 553.54 137.704 554.66 137.144C555.873 136.584 557.32 136.304 559 136.304H621.58C622.14 136.304 622.653 136.444 623.12 136.724C623.587 137.004 623.82 137.517 623.82 138.264L623.26 146.524C623.073 149.324 622.28 151.611 620.88 153.384C619.573 155.064 616.82 155.904 612.62 155.904H597.5Z" fill="#AB6EE7"/>
<path d="M24.8 172.704C18.8267 172.704 14.56 171.531 12 169.184C9.44 166.837 8.16 163.477 8.16 159.104C8.16 156.971 8.32 153.344 8.64 148.224C8.96 142.997 9.38667 137.077 9.92 130.464C10.4533 123.851 10.9867 116.864 11.52 109.504C12.0533 102.144 12.5867 95.2106 13.12 88.7039C13.6533 82.1972 14.08 76.4906 14.4 71.5839C14.72 66.6772 14.88 63.3172 14.88 61.5039C14.88 59.9039 15.7333 59.1039 17.44 59.1039H26.24C32.2133 59.1039 36.32 60.2772 38.56 62.6239C40.9067 64.8639 42.08 68.2239 42.08 72.7039C42.08 73.2372 42.0267 73.7172 41.92 74.1439C41.92 74.5705 41.92 75.0505 41.92 75.5839L36.64 150.304H65.44C66.08 150.304 66.6667 150.517 67.2 150.944C67.7333 151.264 68 151.797 68 152.544L67.36 161.984C67.1467 165.184 66.24 167.797 64.64 169.824C63.1467 171.744 60 172.704 55.2 172.704H24.8ZM113.338 174.304C105.978 174.304 99.8442 173.291 94.9375 171.264C90.1375 169.131 86.2975 166.251 83.4175 162.624C80.5375 158.997 78.5108 154.784 77.3375 149.984C76.1642 145.077 75.5775 139.851 75.5775 134.304C75.5775 127.904 76.3242 121.664 77.8175 115.584C79.4175 109.397 82.0842 103.904 85.8175 99.1039C89.5508 94.3039 94.4575 90.4639 100.538 87.5839C106.724 84.5972 114.404 83.1039 123.578 83.1039C137.018 83.1039 146.618 86.4106 152.378 93.0239C158.244 99.5306 161.178 108.704 161.178 120.544C161.178 123.851 160.911 127.531 160.378 131.584C159.951 135.531 159.044 139.477 157.658 143.424C156.378 147.371 154.564 151.211 152.218 154.944C149.978 158.677 147.098 161.984 143.578 164.864C140.058 167.744 135.791 170.037 130.778 171.744C125.871 173.451 120.058 174.304 113.338 174.304ZM120.858 104.384C116.804 104.384 113.551 105.451 111.098 107.584C108.751 109.611 106.938 112.117 105.658 115.104C104.484 117.984 103.684 121.077 103.258 124.384C102.938 127.584 102.778 130.304 102.778 132.544C102.778 139.584 103.898 144.757 106.138 148.064C108.378 151.371 111.578 153.024 115.738 153.024C119.471 153.024 122.511 151.851 124.858 149.504C127.311 147.157 129.178 144.331 130.458 141.024C131.844 137.717 132.751 134.251 133.178 130.624C133.711 126.997 133.978 123.957 133.978 121.504C133.978 116.171 132.964 112.011 130.938 109.024C129.018 105.931 125.658 104.384 120.858 104.384ZM208.2 152.384C209.48 147.904 210.653 143.477 211.72 139.104C212.893 134.731 214.013 130.091 215.08 125.184C216.253 120.171 217.48 114.731 218.76 108.864C220.147 102.891 221.747 96.1172 223.56 88.5439C223.88 87.0506 224.36 86.0906 225 85.6639C225.64 85.1306 227.027 84.8639 229.16 84.8639C230.76 84.8639 232.893 84.9172 235.56 85.0239C238.227 85.1305 240.84 85.5039 243.4 86.1439C245.96 86.7839 248.147 87.7439 249.96 89.0239C251.88 90.3039 252.84 92.0639 252.84 94.3039C252.84 96.1172 252.2 99.0506 250.92 103.104C249.64 107.157 247.987 111.797 245.96 117.024C243.933 122.144 241.64 127.531 239.08 133.184C236.627 138.837 234.227 144.171 231.88 149.184C229.533 154.197 227.347 158.624 225.32 162.464C223.293 166.197 221.8 168.811 220.84 170.304C219.987 171.477 219.24 172.171 218.6 172.384C217.96 172.597 216.893 172.704 215.4 172.704H201.16C198.92 172.704 197.053 172.331 195.56 171.584C194.173 170.731 193 169.664 192.04 168.384C191.08 167.104 190.28 165.664 189.64 164.064C189 162.357 188.413 160.597 187.88 158.784C184.787 148.117 182.067 138.997 179.72 131.424C177.48 123.744 175.56 117.344 173.96 112.224C172.36 107.104 171.08 103.051 170.12 100.064C169.16 96.9706 168.413 94.6239 167.88 93.0239C167.347 91.3172 166.973 90.1972 166.76 89.6639C166.547 89.0239 166.44 88.5972 166.44 88.3839C166.547 87.6372 167.08 86.8372 168.04 85.9839C169 85.1306 170.227 84.7039 171.72 84.7039C176.627 84.7039 180.787 84.9172 184.2 85.3439C187.72 85.6639 190.6 86.3039 192.84 87.2639C195.187 88.2239 196.947 89.5572 198.12 91.2639C199.4 92.9706 200.307 95.2106 200.84 97.9839C200.947 98.7306 201.16 100.224 201.48 102.464C201.8 104.704 202.12 107.424 202.44 110.624C202.867 113.717 203.347 117.184 203.88 121.024C204.413 124.757 204.893 128.544 205.32 132.384C205.853 136.117 206.333 139.744 206.76 143.264C207.293 146.784 207.773 149.824 208.2 152.384ZM277.571 172.704C274.265 172.704 271.545 172.384 269.411 171.744C267.385 170.997 265.731 169.984 264.451 168.704C263.278 167.424 262.425 165.877 261.891 164.064C261.465 162.144 261.251 159.957 261.251 157.504C261.251 155.904 261.305 153.664 261.411 150.784C261.625 147.797 261.945 143.744 262.371 138.624C262.798 133.397 263.278 126.837 263.811 118.944C264.451 110.944 265.198 101.077 266.051 89.3439C266.158 86.9972 266.425 85.6105 266.851 85.1839C267.171 84.8639 268.025 84.7039 269.411 84.7039H275.651C278.958 84.7039 281.625 85.0239 283.651 85.6639C285.785 86.3039 287.438 87.2639 288.611 88.5439C289.891 89.8239 290.745 91.3706 291.171 93.1839C291.705 94.9972 291.971 97.0239 291.971 99.2639C291.971 100.864 291.865 103.264 291.651 106.464C291.438 109.664 291.118 114.037 290.691 119.584C290.371 125.024 289.891 131.851 289.251 140.064C288.611 148.171 287.811 157.984 286.851 169.504C286.745 170.784 286.478 171.637 286.051 172.064C285.625 172.491 284.718 172.704 283.331 172.704H277.571ZM266.211 65.8239C266.211 61.5572 267.758 58.1972 270.851 55.7439C273.945 53.2906 278.105 52.0639 283.331 52.0639C287.918 52.0639 291.225 53.0239 293.251 54.9439C295.385 56.7572 296.451 59.2105 296.451 62.3039C296.451 66.2505 294.958 69.5572 291.971 72.2239C289.091 74.7839 284.825 76.0639 279.171 76.0639C270.531 76.0639 266.211 72.6505 266.211 65.8239ZM360.651 158.624C360.651 156.277 360.811 153.237 361.131 149.504C361.558 145.664 361.931 141.664 362.251 137.504C362.678 133.237 363.051 129.131 363.371 125.184C363.798 121.237 364.011 117.931 364.011 115.264C364.011 112.491 363.318 110.037 361.931 107.904C360.651 105.664 358.091 104.544 354.251 104.544C350.518 104.544 347.425 105.451 344.971 107.264C342.518 109.077 340.438 112.384 338.731 117.184C337.131 121.984 335.798 128.597 334.731 137.024C333.665 145.451 332.651 156.277 331.691 169.504C331.585 170.784 331.318 171.637 330.891 172.064C330.465 172.491 329.558 172.704 328.171 172.704H322.411C319.105 172.704 316.385 172.384 314.251 171.744C312.225 170.997 310.571 169.984 309.291 168.704C308.118 167.424 307.265 165.877 306.731 164.064C306.305 162.144 306.091 159.957 306.091 157.504C306.091 155.904 306.145 153.664 306.251 150.784C306.465 147.797 306.785 143.744 307.211 138.624C307.638 133.397 308.118 126.837 308.651 118.944C309.291 110.944 310.038 101.077 310.891 89.3439C310.998 86.9972 311.265 85.6105 311.691 85.1839C312.011 84.8639 312.865 84.7039 314.251 84.7039H320.491C323.691 84.7039 326.305 85.0772 328.331 85.8239C330.465 86.5706 332.171 87.5839 333.451 88.8639C334.731 90.0372 335.638 91.4772 336.171 93.1839C336.705 94.7839 337.025 96.4372 337.131 98.1439C340.438 92.4905 344.225 88.5972 348.491 86.4639C352.758 84.2239 358.091 83.1039 364.491 83.1039C368.971 83.1039 372.865 83.5839 376.171 84.5439C379.478 85.5039 382.198 87.1572 384.331 89.5039C386.571 91.7439 388.225 94.7306 389.291 98.4639C390.358 102.091 390.891 106.624 390.891 112.064C390.891 113.771 390.785 116.224 390.571 119.424C390.358 122.624 390.091 126.144 389.771 129.984C389.451 133.717 389.078 137.664 388.651 141.824C388.331 145.877 388.011 149.664 387.691 153.184C387.371 156.704 387.105 159.797 386.891 162.464C386.678 165.131 386.571 166.891 386.571 167.744C386.571 170.091 386.305 171.531 385.771 172.064C385.238 172.491 384.065 172.704 382.251 172.704H377.131C373.718 172.704 370.945 172.384 368.811 171.744C366.678 171.104 365.025 170.197 363.851 169.024C362.678 167.851 361.825 166.411 361.291 164.704C360.865 162.891 360.651 160.864 360.651 158.624Z" fill="black"/>
<path d="M55.5 219.344L49.876 301.484C49.7773 302.964 49.2347 303.704 48.248 303.704H40.108C34.5827 303.704 30.636 302.619 28.268 300.448C25.9 298.277 24.716 295.169 24.716 291.124C24.716 289.644 24.7653 287.424 24.864 284.464C25.0613 281.504 25.308 278.051 25.604 274.104C25.9 270.059 26.196 265.717 26.492 261.08C26.8867 256.344 27.2813 251.608 27.676 246.872C28.0707 242.037 28.416 237.252 28.712 232.516C29.1067 227.78 29.452 223.389 29.748 219.344H6.068C4.98267 219.344 4.44 218.653 4.44 217.272L4.884 208.984C4.98267 207.701 5.18 206.468 5.476 205.284C5.87067 204.001 6.46267 202.867 7.252 201.88C8.04133 200.893 9.028 200.104 10.212 199.512C11.4947 198.92 13.024 198.624 14.8 198.624H80.956C81.548 198.624 82.0907 198.772 82.584 199.068C83.0773 199.364 83.324 199.907 83.324 200.696L82.732 209.428C82.5347 212.388 81.696 214.805 80.216 216.68C78.8347 218.456 75.924 219.344 71.484 219.344H55.5ZM101.816 303.704C98.7572 303.704 96.2412 303.408 94.2679 302.816C92.3932 302.125 90.8639 301.188 89.6799 300.004C88.5946 298.82 87.8052 297.389 87.3119 295.712C86.9172 293.936 86.7199 291.913 86.7199 289.644C86.7199 288.164 86.7692 286.092 86.8679 283.428C87.0652 280.665 87.3612 276.916 87.7559 272.18C88.1506 267.345 88.5946 261.277 89.0879 253.976C89.6799 246.576 90.3706 237.449 91.1599 226.596C91.2586 224.425 91.5052 223.143 91.8999 222.748C92.1959 222.452 92.9852 222.304 94.2679 222.304H100.04C103.099 222.304 105.565 222.6 107.44 223.192C109.413 223.784 110.943 224.672 112.028 225.856C113.212 227.04 114.001 228.471 114.396 230.148C114.889 231.825 115.136 233.7 115.136 235.772C115.136 237.252 115.037 239.472 114.84 242.432C114.643 245.392 114.347 249.437 113.952 254.568C113.656 259.6 113.212 265.915 112.62 273.512C112.028 281.011 111.288 290.088 110.4 300.744C110.301 301.928 110.055 302.717 109.66 303.112C109.265 303.507 108.427 303.704 107.144 303.704H101.816ZM91.3079 204.84C91.3079 200.893 92.7386 197.785 95.5999 195.516C98.4612 193.247 102.309 192.112 107.144 192.112C111.387 192.112 114.445 193 116.32 194.776C118.293 196.453 119.28 198.723 119.28 201.584C119.28 205.235 117.899 208.293 115.136 210.76C112.472 213.128 108.525 214.312 103.296 214.312C95.3039 214.312 91.3079 211.155 91.3079 204.84ZM165.493 285.5C168.354 285.5 170.821 285.105 172.893 284.316C175.064 283.527 176.938 282.639 178.517 281.652C180.096 280.665 181.428 279.777 182.513 278.988C183.598 278.199 184.585 277.804 185.473 277.804C187.742 277.804 188.877 279.284 188.877 282.244C188.877 282.935 188.729 283.921 188.433 285.204C188.137 286.388 187.742 287.671 187.249 289.052C186.756 290.335 186.213 291.568 185.621 292.752C185.128 293.936 184.634 294.824 184.141 295.416C183.648 295.909 182.76 296.699 181.477 297.784C180.293 298.869 178.665 299.955 176.593 301.04C174.521 302.125 172.104 303.063 169.341 303.852C166.578 304.74 163.52 305.184 160.165 305.184C156.416 305.184 152.518 304.641 148.473 303.556C144.526 302.372 140.925 300.399 137.669 297.636C134.413 294.775 131.7 290.976 129.529 286.24C127.457 281.405 126.421 275.387 126.421 268.184C126.421 265.619 126.569 262.708 126.865 259.452C127.26 256.097 128 252.693 129.085 249.24C130.17 245.688 131.601 242.235 133.377 238.88C135.252 235.427 137.718 232.368 140.777 229.704C143.836 227.04 147.486 224.919 151.729 223.34C156.07 221.663 161.201 220.824 167.121 220.824C171.956 220.824 176.1 221.416 179.553 222.6C183.105 223.685 186.016 225.215 188.285 227.188C190.554 229.063 192.232 231.283 193.317 233.848C194.501 236.413 195.093 239.176 195.093 242.136C195.093 247.464 193.416 251.411 190.061 253.976C186.706 256.443 181.97 257.676 175.853 257.676C174.373 257.676 173.337 257.577 172.745 257.38C172.252 257.084 172.005 256.492 172.005 255.604C172.005 253.236 171.956 251.115 171.857 249.24C171.758 247.365 171.462 245.787 170.969 244.504C170.574 243.221 169.933 242.235 169.045 241.544C168.157 240.853 166.874 240.508 165.197 240.508C162.138 240.508 159.672 241.495 157.797 243.468C156.021 245.441 154.64 247.859 153.653 250.72C152.765 253.483 152.173 256.344 151.877 259.304C151.68 262.264 151.581 264.731 151.581 266.704C151.581 273.709 152.666 278.593 154.837 281.356C157.106 284.119 160.658 285.5 165.493 285.5ZM273.653 291.716C273.653 292.209 273.406 293.196 272.913 294.676C272.42 296.156 271.63 297.685 270.545 299.264C269.46 300.843 268.078 302.224 266.401 303.408C264.822 304.592 262.898 305.184 260.629 305.184C257.965 305.184 255.301 304.296 252.637 302.52C250.072 300.744 247.506 298.327 244.941 295.268C242.376 292.209 239.761 288.608 237.097 284.464C234.532 280.221 231.917 275.633 229.253 270.7C228.858 275.929 228.464 281.06 228.069 286.092C227.674 291.124 227.28 296.008 226.885 300.744C226.786 301.928 226.54 302.717 226.145 303.112C225.75 303.507 224.912 303.704 223.629 303.704H218.301C215.242 303.704 212.726 303.408 210.753 302.816C208.78 302.125 207.25 301.188 206.165 300.004C205.08 298.82 204.29 297.34 203.797 295.564C203.402 293.689 203.205 291.568 203.205 289.2C203.205 288.016 203.254 286.783 203.353 285.5C203.452 284.217 203.6 282.392 203.797 280.024C203.994 277.656 204.241 274.548 204.537 270.7C204.932 266.852 205.376 261.771 205.869 255.456C206.362 249.141 206.905 241.396 207.497 232.22C208.188 222.945 208.928 211.697 209.717 198.476C209.816 196.305 210.062 195.023 210.457 194.628C210.753 194.332 211.542 194.184 212.825 194.184H218.597C221.656 194.184 224.172 194.529 226.145 195.22C228.118 195.911 229.697 196.848 230.881 198.032C232.065 199.216 232.854 200.597 233.249 202.176C233.742 203.755 233.989 205.383 233.989 207.06C233.989 208.047 233.89 209.724 233.693 212.092C233.594 214.361 233.446 217.173 233.249 220.528C233.052 223.784 232.756 227.484 232.361 231.628C232.065 235.772 231.769 240.113 231.473 244.652L255.153 223.044C256.041 222.255 256.83 221.712 257.521 221.416C258.31 221.12 258.902 220.972 259.297 220.972C260.382 220.972 261.566 221.663 262.849 223.044C264.132 224.425 265.316 226.053 266.401 227.928C267.585 229.704 268.522 231.579 269.213 233.552C270.002 235.427 270.397 236.956 270.397 238.14C270.397 241.001 268.078 244.011 263.441 247.168C258.902 250.325 251.996 253.877 242.721 257.824C246.865 262.461 250.812 266.704 254.561 270.552C258.31 274.4 261.566 277.804 264.329 280.764C267.19 283.724 269.46 286.141 271.137 288.016C272.814 289.891 273.653 291.124 273.653 291.716ZM315.444 305.184C311.102 305.184 306.761 304.641 302.42 303.556C298.177 302.471 294.329 300.596 290.876 297.932C287.521 295.268 284.758 291.716 282.588 287.276C280.417 282.836 279.332 277.261 279.332 270.552C279.332 268.085 279.529 265.125 279.924 261.672C280.318 258.219 281.058 254.667 282.144 251.016C283.328 247.365 284.906 243.764 286.88 240.212C288.952 236.561 291.616 233.305 294.872 230.444C298.128 227.583 302.074 225.264 306.712 223.488C311.349 221.712 316.874 220.824 323.288 220.824C328.418 220.824 332.76 221.416 336.312 222.6C339.864 223.784 342.725 225.412 344.896 227.484C347.066 229.457 348.645 231.776 349.632 234.44C350.618 237.104 351.112 239.965 351.112 243.024C351.112 247.563 350.174 251.411 348.3 254.568C346.524 257.725 344.156 260.389 341.196 262.56C338.334 264.632 335.128 266.26 331.576 267.444C328.024 268.628 324.521 269.565 321.068 270.256C317.614 270.848 314.408 271.243 311.448 271.44C308.586 271.539 306.366 271.588 304.788 271.588C304.788 273.463 305.034 275.337 305.528 277.212C306.12 278.988 306.958 280.567 308.044 281.948C309.129 283.329 310.56 284.464 312.336 285.352C314.112 286.24 316.282 286.684 318.848 286.684C321.413 286.684 323.386 286.289 324.768 285.5C326.248 284.612 327.432 283.675 328.32 282.688C329.208 281.603 329.948 280.665 330.54 279.876C331.23 278.988 332.118 278.544 333.204 278.544C333.697 278.544 334.536 278.692 335.72 278.988C337.002 279.185 338.285 279.679 339.568 280.468C340.85 281.257 341.985 282.343 342.972 283.724C343.958 285.105 344.452 286.881 344.452 289.052C344.452 291.913 343.564 294.38 341.788 296.452C340.012 298.524 337.693 300.201 334.832 301.484C332.069 302.767 328.961 303.704 325.508 304.296C322.054 304.888 318.7 305.184 315.444 305.184ZM318.256 240.508C316.085 240.508 314.21 241.149 312.632 242.432C311.152 243.616 309.869 245.145 308.784 247.02C307.797 248.895 307.008 250.967 306.416 253.236C305.922 255.505 305.528 257.676 305.232 259.748C311.349 259.649 316.282 258.613 320.032 256.64C323.88 254.667 325.804 251.855 325.804 248.204C325.804 246.231 325.162 244.455 323.88 242.876C322.696 241.297 320.821 240.508 318.256 240.508ZM391.845 242.284C391.549 246.033 391.204 249.733 390.809 253.384C390.513 257.035 390.217 260.488 389.921 263.744C389.625 267 389.378 269.911 389.181 272.476C389.082 275.041 389.033 277.015 389.033 278.396C389.033 280.961 389.329 282.688 389.921 283.576C390.513 284.365 391.5 284.76 392.881 284.76C393.966 284.76 394.904 284.563 395.693 284.168C396.482 283.773 397.222 283.329 397.913 282.836C398.604 282.343 399.196 281.899 399.689 281.504C400.281 281.109 400.922 280.912 401.613 280.912C402.304 280.912 402.945 281.307 403.537 282.096C404.129 282.885 404.425 284.711 404.425 287.572C404.425 292.999 402.945 297.291 399.985 300.448C397.025 303.605 391.944 305.184 384.741 305.184C377.637 305.184 372.358 303.556 368.905 300.3C365.55 296.945 363.873 291.864 363.873 285.056C363.873 283.576 363.922 281.849 364.021 279.876C364.218 277.804 364.465 275.14 364.761 271.884C365.057 268.628 365.402 264.632 365.797 259.896C366.29 255.16 366.784 249.289 367.277 242.284H359.433C358.644 242.284 358.15 242.136 357.953 241.84C357.854 241.445 357.805 240.903 357.805 240.212L358.249 232.664C358.348 231.381 358.496 230.148 358.693 228.964C358.989 227.681 359.482 226.547 360.173 225.56C360.962 224.573 362.048 223.784 363.429 223.192C364.81 222.6 366.636 222.304 368.905 222.304C369.596 220.528 370.385 218.407 371.273 215.94C372.161 213.473 373.049 211.105 373.937 208.836C374.825 206.468 375.664 204.495 376.453 202.916C377.341 201.337 378.13 200.548 378.821 200.548H383.113C387.257 200.548 390.118 201.831 391.697 204.396C393.276 206.961 394.065 210.02 394.065 213.572C394.065 215.545 393.917 218.456 393.621 222.304H409.161C410.74 222.304 411.529 222.995 411.529 224.376L410.937 232.368C410.74 235.328 409.901 237.745 408.421 239.62C407.04 241.396 404.129 242.284 399.689 242.284H391.845ZM453.622 220.824C462.009 220.824 468.176 222.501 472.122 225.856C476.069 229.112 478.042 233.305 478.042 238.436C478.042 242.777 476.661 246.083 473.898 248.352C471.234 250.621 467.337 251.756 462.206 251.756C460.825 251.756 459.888 251.608 459.394 251.312C458.901 251.016 458.654 250.473 458.654 249.684C458.654 248.796 458.556 247.809 458.358 246.724C458.26 245.54 457.914 244.455 457.322 243.468C456.829 242.383 455.99 241.495 454.806 240.804C453.721 240.113 452.142 239.768 450.07 239.768C447.308 239.768 445.088 240.459 443.41 241.84C441.733 243.123 440.894 244.751 440.894 246.724C440.894 248.796 441.733 250.473 443.41 251.756C445.186 252.94 447.357 254.075 449.922 255.16C452.586 256.245 455.448 257.38 458.506 258.564C461.565 259.649 464.377 261.129 466.942 263.004C469.606 264.879 471.777 267.247 473.454 270.108C475.23 272.871 476.118 276.472 476.118 280.912C476.118 288.016 473.602 293.837 468.57 298.376C463.538 302.915 455.99 305.184 445.926 305.184C443.164 305.184 439.957 304.937 436.306 304.444C432.754 304.049 429.35 303.408 426.094 302.52C422.838 301.533 420.076 300.251 417.806 298.672C415.636 297.093 414.55 295.12 414.55 292.752C414.55 291.864 414.698 290.779 414.994 289.496C415.389 288.213 415.932 286.98 416.622 285.796C417.412 284.612 418.3 283.625 419.286 282.836C420.372 281.948 421.654 281.504 423.134 281.504C424.318 281.504 425.404 281.8 426.39 282.392C427.377 282.984 428.512 283.625 429.794 284.316C431.176 284.908 432.853 285.5 434.826 286.092C436.8 286.684 439.414 286.98 442.67 286.98C445.137 286.98 447.308 286.684 449.182 286.092C451.156 285.5 452.142 284.168 452.142 282.096C452.142 280.221 451.353 278.741 449.774 277.656C448.196 276.472 446.173 275.387 443.706 274.4C441.338 273.413 438.724 272.377 435.862 271.292C433.1 270.108 430.485 268.579 428.018 266.704C425.65 264.829 423.677 262.461 422.098 259.6C420.52 256.64 419.73 252.841 419.73 248.204C419.73 243.172 420.717 238.929 422.69 235.476C424.762 231.924 427.377 229.063 430.534 226.892C433.79 224.721 437.441 223.192 441.486 222.304C445.532 221.317 449.577 220.824 453.622 220.824Z" fill="black"/>
</svg>
